<svg width="16" height="16" viewBox="0 0 16 16" fill="none" xmlns="http://www.w3.org/2000/svg">
<g clip-path="url(#clip0_5190_3238)">
<path d="M1.33325 4.66683L4.27325 1.72683C4.39729 1.60205 4.5448 1.50305 4.70727 1.43555C4.86975 1.36804 5.04398 1.33336 5.21992 1.3335H10.7799C10.9559 1.33336 11.1301 1.36804 11.2926 1.43555C11.455 1.50305 11.6025 1.60205 11.7266 1.72683L14.6666 4.66683M1.33325 4.66683H14.6666M1.33325 4.66683V6.66683C1.33325 7.02045 1.47373 7.35959 1.72378 7.60964C1.97382 7.85969 2.31296 8.00016 2.66659 8.00016M14.6666 4.66683V6.66683C14.6666 7.02045 14.5261 7.35959 14.2761 7.60964C14.026 7.85969 13.6869 8.00016 13.3333 8.00016M2.66659 8.00016V13.3335C2.66659 13.6871 2.80706 14.0263 3.05711 14.2763C3.30716 14.5264 3.6463 14.6668 3.99992 14.6668H11.9999C12.3535 14.6668 12.6927 14.5264 12.9427 14.2763C13.1928 14.0263 13.3333 13.6871 13.3333 13.3335V8.00016M2.66659 8.00016C3.0561 7.97872 3.4281 7.83133 3.72659 7.58016C3.80613 7.52268 3.90178 7.49174 3.99992 7.49174C4.09806 7.49174 4.19371 7.52268 4.27325 7.58016C4.57174 7.83133 4.94374 7.97872 5.33325 8.00016C5.72276 7.97872 6.09477 7.83133 6.39325 7.58016C6.4728 7.52268 6.56844 7.49174 6.66658 7.49174C6.76473 7.49174 6.86037 7.52268 6.93992 7.58016C7.2384 7.83133 7.61041 7.97872 7.99992 8.00016C8.38943 7.97872 8.76143 7.83133 9.05992 7.58016C9.13946 7.52268 9.23511 7.49174 9.33325 7.49174C9.43139 7.49174 9.52704 7.52268 9.60658 7.58016C9.90507 7.83133 10.2771 7.97872 10.6666 8.00016C11.0561 7.97872 11.4281 7.83133 11.7266 7.58016C11.8061 7.52268 11.9018 7.49174 11.9999 7.49174C12.0981 7.49174 12.1937 7.52268 12.2733 7.58016C12.5717 7.83133 12.9437 7.97872 13.3333 8.00016M9.99992 14.6668V12.0002C9.99992 11.6465 9.85944 11.3074 9.60939 11.0574C9.35935 10.8073 9.02021 10.6668 8.66658 10.6668H7.33325C6.97963 10.6668 6.64049 10.8073 6.39044 11.0574C6.14039 11.3074 5.99992 11.6465 5.99992 12.0002V14.6668" stroke="#363636" stroke-width="1.3" stroke-linecap="round" stroke-linejoin="round"/>
</g>
<defs>
<clipPath id="clip0_5190_3238">
<rect width="16" height="16" fill="white"/>
</clipPath>
</defs>
</svg>
