<svg width="38" height="38" viewBox="0 0 38 38" fill="none" xmlns="http://www.w3.org/2000/svg">
<g filter="url(#filter0_d_5576_4283)">
<rect x="5" y="1" width="27.4286" height="27.4286" rx="13.7143" fill="white"/>
<rect x="5" y="1" width="27.4286" height="27.4286" rx="13.7143" stroke="#009E99" stroke-width="2"/>
</g>
<path d="M16.9638 9.06755L15.3504 10.681H12.2619V20.3617H25.1694V10.681H22.081L20.4675 9.06755H16.9638ZM16.2955 7.4541H21.1358L22.7493 9.06755H25.9762C26.4217 9.06755 26.7829 9.42873 26.7829 9.87427V21.1684C26.7829 21.6139 26.4217 21.9751 25.9762 21.9751H11.4552C11.0096 21.9751 10.6484 21.6139 10.6484 21.1684V9.87427C10.6484 9.42873 11.0096 9.06755 11.4552 9.06755H14.6821L16.2955 7.4541ZM18.7157 19.5549C16.2652 19.5549 14.2787 17.5685 14.2787 15.118C14.2787 12.6675 16.2652 10.681 18.7157 10.681C21.1662 10.681 23.1526 12.6675 23.1526 15.118C23.1526 17.5685 21.1662 19.5549 18.7157 19.5549ZM18.7157 17.9415C20.2751 17.9415 21.5392 16.6774 21.5392 15.118C21.5392 13.5586 20.2751 12.2944 18.7157 12.2944C17.1563 12.2944 15.8921 13.5586 15.8921 15.118C15.8921 16.6774 17.1563 17.9415 18.7157 17.9415Z" fill="#009E99"/>
<defs>
<filter id="filter0_d_5576_4283" x="0" y="0" width="37.4287" height="37.4287" filterUnits="userSpaceOnUse" color-interpolation-filters="sRGB">
<feFlood flood-opacity="0" result="BackgroundImageFix"/>
<feColorMatrix in="SourceAlpha" type="matrix" values="0 0 0 0 0 0 0 0 0 0 0 0 0 0 0 0 0 0 127 0" result="hardAlpha"/>
<feOffset dy="4"/>
<feGaussianBlur stdDeviation="2"/>
<feComposite in2="hardAlpha" operator="out"/>
<feColorMatrix type="matrix" values="0 0 0 0 0.395833 0 0 0 0 0.395833 0 0 0 0 0.395833 0 0 0 0.25 0"/>
<feBlend mode="normal" in2="BackgroundImageFix" result="effect1_dropShadow_5576_4283"/>
<feBlend mode="normal" in="SourceGraphic" in2="effect1_dropShadow_5576_4283" result="shape"/>
</filter>
</defs>
</svg>
