<svg width="16" height="16" viewBox="0 0 16 16" fill="none" xmlns="http://www.w3.org/2000/svg">
<g clip-path="url(#clip0_5241_9814)">
<path d="M14.6666 8.00016C14.6666 11.6821 11.6818 14.6668 7.99992 14.6668M14.6666 8.00016C14.6666 4.31826 11.6818 1.3335 7.99992 1.3335M14.6666 8.00016H1.33325M7.99992 14.6668C4.31802 14.6668 1.33325 11.6821 1.33325 8.00016M7.99992 14.6668C6.28807 12.8694 5.33325 10.4823 5.33325 8.00016C5.33325 5.51799 6.28807 3.13093 7.99992 1.3335M7.99992 14.6668C9.71176 12.8694 10.6666 10.4823 10.6666 8.00016C10.6666 5.51799 9.71176 3.13093 7.99992 1.3335M1.33325 8.00016C1.33325 4.31826 4.31802 1.3335 7.99992 1.3335" stroke="#363636" stroke-width="1.3" stroke-linecap="round" stroke-linejoin="round"/>
</g>
<defs>
<clipPath id="clip0_5241_9814">
<rect width="16" height="16" fill="white"/>
</clipPath>
</defs>
</svg>
