<svg width="16" height="16" viewBox="0 0 16 16" fill="none" xmlns="http://www.w3.org/2000/svg">
<path d="M7.66667 10H4.66667C3.95942 10 3.28115 10.281 2.78105 10.781C2.28095 11.2811 2 11.9594 2 12.6667V14M14.252 11.084C14.5176 10.8184 14.6668 10.4582 14.6668 10.0827C14.6668 9.70709 14.5176 9.3469 14.252 9.08133C13.9864 8.81576 13.6262 8.66657 13.2507 8.66657C12.8751 8.66657 12.5149 8.81576 12.2493 9.08133L9.576 11.756C9.4175 11.9144 9.30148 12.1102 9.23867 12.3253L8.68067 14.2387C8.66394 14.296 8.66293 14.3568 8.67776 14.4147C8.69259 14.4726 8.72271 14.5254 8.76496 14.5677C8.80722 14.61 8.86005 14.6401 8.91794 14.6549C8.97583 14.6697 9.03663 14.6687 9.094 14.652L11.0073 14.094C11.2224 14.0312 11.4183 13.9152 11.5767 13.7567L14.252 11.084ZM9.33333 4.66667C9.33333 6.13943 8.13943 7.33333 6.66667 7.33333C5.19391 7.33333 4 6.13943 4 4.66667C4 3.19391 5.19391 2 6.66667 2C8.13943 2 9.33333 3.19391 9.33333 4.66667Z" stroke="#363636" stroke-width="1.3" stroke-linecap="round" stroke-linejoin="round"/>
</svg>
