<svg width="16" height="16" viewBox="0 0 16 16" fill="none" xmlns="http://www.w3.org/2000/svg">
<path d="M1.33325 6.3332C1.33327 5.59133 1.55831 4.86692 1.97867 4.25564C2.39903 3.64436 2.99493 3.17497 3.68766 2.90946C4.38039 2.64396 5.13736 2.59483 5.85859 2.76856C6.57983 2.94229 7.2314 3.33072 7.72725 3.88253C7.76218 3.91987 7.8044 3.94964 7.8513 3.97C7.89821 3.99035 7.94879 4.00085 7.99992 4.00085C8.05105 4.00085 8.10163 3.99035 8.14853 3.97C8.19544 3.94964 8.23766 3.91987 8.27259 3.88253C8.76688 3.32713 9.4186 2.93544 10.141 2.7596C10.8634 2.58375 11.6222 2.6321 12.3165 2.89819C13.0108 3.16428 13.6075 3.6355 14.0273 4.24913C14.4471 4.86276 14.6701 5.5897 14.6666 6.3332C14.6666 7.85986 13.6666 8.99986 12.6666 9.99986L9.00525 13.5419C8.88103 13.6845 8.72787 13.7991 8.55595 13.8781C8.38403 13.957 8.19728 13.9984 8.00811 13.9996C7.81894 14.0008 7.63168 13.9618 7.45878 13.885C7.28587 13.8083 7.13127 13.6956 7.00525 13.5545L3.33325 9.99986C2.33325 8.99986 1.33325 7.86653 1.33325 6.3332Z" stroke="#363636" stroke-width="1.3" stroke-linecap="round" stroke-linejoin="round"/>
</svg>
