<svg width="16" height="16" viewBox="0 0 16 16" fill="none" xmlns="http://www.w3.org/2000/svg">
<path d="M4.66667 6.66683V4.66683C4.66667 3.78277 5.01786 2.93493 5.64298 2.30981C6.2681 1.68469 7.11595 1.3335 8 1.3335C8.88406 1.3335 9.7319 1.68469 10.357 2.30981C10.9821 2.93493 11.3333 3.78277 11.3333 4.66683V6.66683M8.66667 10.6668C8.66667 11.035 8.36819 11.3335 8 11.3335C7.63181 11.3335 7.33333 11.035 7.33333 10.6668C7.33333 10.2986 7.63181 10.0002 8 10.0002C8.36819 10.0002 8.66667 10.2986 8.66667 10.6668ZM3.33333 6.66683H12.6667C13.403 6.66683 14 7.26378 14 8.00016V13.3335C14 14.0699 13.403 14.6668 12.6667 14.6668H3.33333C2.59695 14.6668 2 14.0699 2 13.3335V8.00016C2 7.26378 2.59695 6.66683 3.33333 6.66683Z" stroke="#363636" stroke-width="1.3" stroke-linecap="round" stroke-linejoin="round"/>
</svg>
