<svg width="24" height="24" viewBox="0 0 24 24" fill="none" xmlns="http://www.w3.org/2000/svg">
<path d="M2.99206 16.3422C3.1391 16.7131 3.17183 17.1195 3.08606 17.5092L2.02106 20.7992C1.98674 20.966 1.99561 21.1389 2.04683 21.3013C2.09805 21.4638 2.18992 21.6105 2.31372 21.7275C2.43753 21.8445 2.58917 21.9279 2.75426 21.9698C2.91935 22.0118 3.09242 22.0109 3.25706 21.9672L6.67006 20.9692C7.03777 20.8962 7.41859 20.9281 7.76906 21.0612C9.90444 22.0584 12.3234 22.2694 14.5992 21.6569C16.875 21.0444 18.8613 19.6478 20.2078 17.7136C21.5542 15.7793 22.1742 13.4316 21.9584 11.0847C21.7425 8.73787 20.7048 6.54265 19.0281 4.88638C17.3515 3.23011 15.1438 2.21922 12.7944 2.03208C10.4451 1.84494 8.10519 2.49356 6.1875 3.86352C4.26981 5.23348 2.89759 7.23672 2.31295 9.51982C1.72831 11.8029 1.96883 14.2191 2.99206 16.3422Z" stroke="#939393" stroke-width="2" stroke-linecap="round" stroke-linejoin="round"/>
</svg>
