<svg width="25" height="25" viewBox="0 0 25 25" fill="none" xmlns="http://www.w3.org/2000/svg">
<path d="M21.2466 8.50004L19.2466 10.5M19.2466 10.5L17.7466 6.80004C17.6051 6.42138 17.3522 6.09446 17.0213 5.86239C16.6903 5.63032 16.2968 5.50399 15.8926 5.50004H8.64658C8.23909 5.49068 7.83846 5.60605 7.49835 5.8307C7.15825 6.05536 6.8949 6.37856 6.74358 6.75704L5.24658 10.5M19.2466 10.5H5.24658M19.2466 10.5C20.3512 10.5 21.2466 11.3955 21.2466 12.5V16.5C21.2466 17.6046 20.3512 18.5 19.2466 18.5M5.24658 10.5L3.24658 8.50004M5.24658 10.5C4.14201 10.5 3.24658 11.3955 3.24658 12.5V16.5C3.24658 17.6046 4.14201 18.5 5.24658 18.5M7.24658 14.5H7.25658M17.2466 14.5H17.2566M19.2466 18.5H5.24658M19.2466 18.5V20.5M5.24658 18.5V20.5" stroke="#009E99" stroke-width="2" stroke-linecap="round" stroke-linejoin="round"/>
</svg>
