<svg width="32" height="32" viewBox="0 0 32 32" fill="none" xmlns="http://www.w3.org/2000/svg">
<circle cx="16" cy="16" r="15.5" fill="#FEFEFE" stroke="#363636"/>
<path d="M14.7273 10.909H23M14.7273 10.909C14.7273 11.2465 14.5932 11.5702 14.3545 11.8089C14.1158 12.0476 13.7921 12.1817 13.4545 12.1817C13.117 12.1817 12.7933 12.0476 12.5546 11.8089C12.3159 11.5702 12.1818 11.2465 12.1818 10.909M14.7273 10.909C14.7273 10.5714 14.5932 10.2477 14.3545 10.009C14.1158 9.77032 13.7921 9.63623 13.4545 9.63623C13.117 9.63623 12.7933 9.77032 12.5546 10.009C12.3159 10.2477 12.1818 10.5714 12.1818 10.909M12.1818 10.909H9M14.7273 21.0908H23M14.7273 21.0908C14.7273 21.4283 14.5932 21.752 14.3545 21.9907C14.1158 22.2294 13.7921 22.3635 13.4545 22.3635C13.117 22.3635 12.7933 22.2294 12.5546 21.9907C12.3159 21.752 12.1818 21.4283 12.1818 21.0908M14.7273 21.0908C14.7273 20.7532 14.5932 20.4295 14.3545 20.1908C14.1158 19.9521 13.7921 19.818 13.4545 19.818C13.117 19.818 12.7933 19.9521 12.5546 20.1908C12.3159 20.4295 12.1818 20.7532 12.1818 21.0908M12.1818 21.0908H9M19.8182 15.9999H23M19.8182 15.9999C19.8182 16.3374 19.6841 16.6611 19.4454 16.8998C19.2067 17.1385 18.883 17.2726 18.5455 17.2726C18.2079 17.2726 17.8842 17.1385 17.6455 16.8998C17.4068 16.6611 17.2727 16.3374 17.2727 15.9999M19.8182 15.9999C19.8182 15.6623 19.6841 15.3386 19.4454 15.0999C19.2067 14.8612 18.883 14.7271 18.5455 14.7271C18.2079 14.7271 17.8842 14.8612 17.6455 15.0999C17.4068 15.3386 17.2727 15.6623 17.2727 15.9999M17.2727 15.9999H9" stroke="#009E99" stroke-width="1.5" stroke-linecap="round" stroke-linejoin="round"/>
</svg>
