<svg width="56" height="56" viewBox="0 0 56 56" fill="none" xmlns="http://www.w3.org/2000/svg">
<rect width="56" height="56" rx="28" fill="#009E99"/>
<path d="M19.1123 17.8926C19.9764 18.1222 20.7285 18.4989 21.5247 18.9007C21.7874 19.0311 21.7874 19.0311 22.0554 19.164C22.6326 19.451 23.2087 19.7401 23.7848 20.0294C24.1858 20.2297 24.5868 20.4299 24.9879 20.6299C25.8275 21.0492 26.6666 21.4695 27.5053 21.8906C28.5816 22.4309 29.6593 22.9685 30.7373 23.5053C31.5653 23.9179 32.3925 24.332 33.2195 24.7465C33.6167 24.9453 34.0141 25.1437 34.4118 25.3417C34.9664 25.618 35.5201 25.8963 36.0735 26.1751C36.3213 26.2979 36.3213 26.2979 36.5741 26.4231C36.7245 26.4993 36.8748 26.5756 37.0297 26.6541C37.1606 26.7197 37.2916 26.7853 37.4265 26.8529C37.7506 27.0622 37.7506 27.0622 38.1256 27.6247C38.1533 28.1665 38.1533 28.1665 37.9381 28.7497C37.46 29.1362 36.9234 29.3816 36.3695 29.6431C36.2093 29.7228 36.0491 29.8026 35.8841 29.8848C35.5483 30.0518 35.2117 30.2172 34.8744 30.3811C34.2612 30.6805 33.6546 30.992 33.048 31.3046C31.4621 32.1208 29.8673 32.9201 28.274 33.722C27.4063 34.1588 26.5392 34.5967 25.6734 35.0375C24.8257 35.469 23.9766 35.8976 23.1263 36.3241C22.8049 36.486 22.4839 36.6489 22.1636 36.8128C21.7183 37.0404 21.2713 37.2642 20.8237 37.4872C20.6278 37.589 20.6278 37.589 20.4279 37.6929C19.6313 38.0836 19.1027 38.2274 18.2506 37.9372C17.8756 37.3747 17.8756 37.3747 17.9114 36.7887C18.0852 35.956 18.3331 35.1769 18.6146 34.3754C18.6684 34.2191 18.7223 34.0628 18.7777 33.9018C18.9486 33.4067 19.121 32.9122 19.2935 32.4176C19.4102 32.0804 19.5268 31.7431 19.6433 31.4058C19.9278 30.5825 20.2138 29.7597 20.5006 28.9372C20.7305 28.9344 20.9604 28.9317 21.1973 28.9289C22.0497 28.918 22.9019 28.9035 23.7541 28.888C24.1231 28.8817 24.4922 28.8765 24.8612 28.8722C25.3914 28.8659 25.9214 28.8561 26.4515 28.8456C26.6168 28.8444 26.782 28.8432 26.9523 28.842C27.1831 28.8364 27.1831 28.8364 27.4185 28.8307C27.5538 28.8286 27.6892 28.8266 27.8286 28.8244C28.291 28.7283 28.466 28.5581 28.7506 28.1872C28.7363 27.7863 28.7363 27.7863 28.5631 27.4372C27.9192 27.1152 27.1791 27.2037 26.4698 27.1903C26.2147 27.1845 26.2147 27.1845 25.9544 27.1785C25.4099 27.1662 24.8654 27.1552 24.3209 27.1442C23.9522 27.1361 23.5836 27.1279 23.2149 27.1197C22.3102 27.0996 21.4054 27.0806 20.5006 27.0622C20.12 25.9891 19.7428 24.9149 19.3688 23.8395C19.2411 23.474 19.1125 23.1088 18.9829 22.744C18.7967 22.2189 18.6138 21.6927 18.4315 21.1662C18.3731 21.0038 18.3147 20.8415 18.2546 20.6742C17.9588 19.8088 17.7519 19.1508 18.0631 18.2497C18.6256 17.8747 18.6256 17.8747 19.1123 17.8926Z" fill="#FEFEFE"/>
</svg>
