<svg width="56" height="56" viewBox="0 0 56 56" fill="none" xmlns="http://www.w3.org/2000/svg">
<rect x="0.5" y="0.5" width="55" height="55" rx="27.5" fill="#FEFEFE"/>
<rect x="0.5" y="0.5" width="55" height="55" rx="27.5" stroke="#363636"/>
<path d="M19.9961 18.3417C20.1883 18.3404 20.3805 18.3391 20.5786 18.3377C21.2124 18.3344 21.846 18.3366 22.4798 18.3391C22.9211 18.3386 23.3624 18.3379 23.8037 18.337C24.7279 18.3359 25.6521 18.3375 26.5764 18.341C27.7605 18.3453 28.9445 18.3428 30.1286 18.3383C31.0396 18.3356 31.9507 18.3365 32.8618 18.3384C33.2983 18.3389 33.7349 18.3383 34.1715 18.3365C34.7819 18.3346 35.3921 18.3375 36.0025 18.3417C36.1825 18.3402 36.3625 18.3387 36.548 18.3371C37.6017 18.3504 38.2466 18.4557 39.0618 19.1888C39.787 20.0392 39.9221 20.7427 39.9148 21.829C39.9167 21.9768 39.9186 22.1245 39.9206 22.2767C39.9258 22.7626 39.9255 23.2483 39.9246 23.7342C39.9261 24.0737 39.9277 24.4132 39.9295 24.7527C39.9323 25.4635 39.9322 26.1743 39.9302 26.8851C39.928 27.7935 39.9344 28.7016 39.9431 29.6099C39.9486 30.3109 39.9489 31.0119 39.9477 31.7129C39.9479 32.0477 39.9499 32.3824 39.9537 32.7172C39.9849 35.868 39.9849 35.868 39.0014 36.946C38.3829 37.4233 37.8807 37.6105 37.0997 37.6139C36.8497 37.6163 36.8497 37.6163 36.5947 37.6187C36.4133 37.6186 36.2319 37.6184 36.0451 37.6182C35.8529 37.6195 35.6607 37.6208 35.4628 37.622C34.827 37.6256 34.1912 37.6263 33.5555 37.6267C33.1136 37.628 32.6718 37.6292 32.23 37.6305C31.3035 37.6328 30.377 37.6335 29.4505 37.6332C28.2635 37.6332 27.0765 37.6383 25.8895 37.6448C24.9768 37.649 24.0641 37.6497 23.1515 37.6495C22.7138 37.65 22.2762 37.6516 21.8386 37.6545C21.2264 37.6582 20.6143 37.6571 20.0021 37.6549C19.8215 37.657 19.6408 37.6591 19.4547 37.6612C18.3987 37.6513 17.7535 37.5494 16.9368 36.8138C16.2084 35.9609 16.0778 35.257 16.0898 34.1675C16.0884 34.0192 16.0871 33.8709 16.0858 33.7181C16.0825 33.2304 16.0847 32.7429 16.0872 32.2552C16.0867 31.9148 16.086 31.5743 16.085 31.2339C16.0839 30.5215 16.0855 29.8092 16.089 29.0968C16.0933 28.1851 16.0908 27.2735 16.0863 26.3618C16.0836 25.6592 16.0845 24.9566 16.0864 24.254C16.0869 23.9179 16.0863 23.5818 16.0846 23.2457C16.0827 22.7754 16.0856 22.3053 16.0898 21.835C16.0882 21.697 16.0867 21.5591 16.0852 21.4169C16.1008 20.4585 16.3164 19.9151 16.9368 19.1888C17.9039 18.3192 18.7592 18.3313 19.9961 18.3417ZM17.6868 20.5013C17.5084 21.0365 17.4765 21.3646 17.478 21.9194C17.478 22.092 17.478 22.2646 17.4781 22.4425C17.479 22.6283 17.48 22.814 17.481 23.0054C17.4813 23.1961 17.4815 23.3867 17.4818 23.5831C17.4828 24.1926 17.4852 24.802 17.4876 25.4114C17.4885 25.8244 17.4894 26.2373 17.4901 26.6503C17.4922 27.6631 17.4954 28.6759 17.4993 29.6888C18.245 29.0618 18.9678 28.4303 19.6453 27.7288C19.7891 27.5818 19.9329 27.4349 20.0811 27.2835C20.3777 26.9785 20.6736 26.6728 20.9688 26.3665C21.1121 26.2205 21.2554 26.0745 21.4031 25.9241C21.5312 25.7918 21.6594 25.6596 21.7914 25.5233C22.4323 24.9811 22.9324 24.8103 23.7688 24.8255C24.9925 25.1475 25.6562 26.0254 26.4495 26.951C27.0345 27.6227 27.6318 28.2822 28.2337 28.9388C28.4066 29.131 28.4066 29.131 28.583 29.3272C28.748 29.5062 28.748 29.5062 28.9163 29.6888C29.0643 29.8512 29.0643 29.8512 29.2153 30.0169C29.5102 30.3109 29.5102 30.3109 30.0618 30.2513C30.5218 29.8035 30.5218 29.8035 30.9876 29.2434C32.1525 27.8834 32.1525 27.8834 33.2259 27.7434C34.6953 27.9198 35.7053 29.2947 36.6829 30.2981C36.9864 30.6081 37.2904 30.9177 37.5948 31.2268C37.728 31.3635 37.8613 31.5001 37.9986 31.6408C38.2624 31.9603 38.2624 31.9603 38.4993 31.9388C38.5124 30.537 38.5223 29.1353 38.5285 27.7336C38.5314 27.0826 38.5354 26.4317 38.5417 25.7808C38.549 25.0319 38.5518 24.2831 38.5542 23.5342C38.5571 23.3012 38.56 23.0681 38.563 22.828C38.5631 22.6104 38.5631 22.3927 38.5632 22.1685C38.5644 21.9774 38.5657 21.7863 38.5669 21.5894C38.4873 20.9704 38.3058 20.626 37.9368 20.1263C37.3628 19.7436 37.2474 19.7041 36.6011 19.7011C36.444 19.6995 36.2868 19.6979 36.1248 19.6963C35.953 19.6964 35.7812 19.6966 35.6041 19.6968C35.4227 19.6955 35.2412 19.6943 35.0543 19.693C34.4531 19.6894 33.852 19.6887 33.2508 19.6883C32.8334 19.6871 32.4161 19.6858 31.9988 19.6845C31.1234 19.6822 30.2479 19.6815 29.3725 19.6818C28.2504 19.6818 27.1283 19.6767 26.0062 19.6702C25.1441 19.6661 24.2819 19.6653 23.4198 19.6655C23.0061 19.6651 22.5924 19.6634 22.1787 19.6605C21.6 19.6568 21.0216 19.6579 20.443 19.6602C20.1864 19.657 20.1864 19.657 19.9246 19.6538C18.947 19.6635 18.3793 19.7377 17.6868 20.5013ZM22.5228 26.592C22.4102 26.6944 22.2977 26.7967 22.1817 26.9021C22.0625 27.0152 21.9434 27.1282 21.8206 27.2447C21.6968 27.362 21.573 27.4793 21.4455 27.6001C21.184 27.8504 20.9237 28.1018 20.6645 28.3544C20.4002 28.6091 20.1325 28.8603 19.8614 29.1075C17.9964 30.7593 17.9964 30.7593 17.2837 33.0516C17.3028 34.1126 17.3996 35.0018 18.0618 35.8763C18.6358 36.2589 18.7512 36.2984 19.3975 36.3014C19.6332 36.3038 19.6332 36.3038 19.8738 36.3062C20.0456 36.3061 20.2174 36.3059 20.3945 36.3057C20.5759 36.307 20.7574 36.3083 20.9443 36.3095C21.5455 36.3131 22.1467 36.3138 22.7478 36.3142C23.1652 36.3155 23.5825 36.3167 23.9998 36.318C24.8753 36.3203 25.7507 36.321 26.6261 36.3207C27.7482 36.3207 28.8703 36.3258 29.9924 36.3323C30.8545 36.3365 31.7167 36.3372 32.5788 36.337C32.9926 36.3375 33.4063 36.3391 33.82 36.342C34.3986 36.3457 34.977 36.3446 35.5556 36.3424C35.7267 36.3445 35.8978 36.3466 36.074 36.3487C36.8421 36.3411 37.2698 36.3129 37.9432 35.9156C38.4154 35.3848 38.5088 35.0773 38.5526 34.3847C38.4542 33.6773 37.9782 33.2514 37.4842 32.7818C37.3779 32.6752 37.2717 32.5687 37.1622 32.459C36.9375 32.2356 36.7108 32.0143 36.4821 31.795C36.1321 31.4583 35.7903 31.1147 35.4488 30.7694C35.2292 30.5531 35.0093 30.3371 34.7889 30.1216C34.6865 30.0187 34.5841 29.9158 34.4786 29.8098C33.8892 29.2461 33.8892 29.2461 33.1082 29.1382C32.5915 29.3535 32.2914 29.6158 31.9016 30.0169C31.7752 30.1435 31.6488 30.2702 31.5186 30.4007C31.1698 30.835 30.9907 31.2265 30.8118 31.7513C30.9223 31.8644 31.0327 31.9775 31.1465 32.094C31.3579 32.3188 31.3579 32.3188 31.5735 32.5481C31.7149 32.6961 31.8563 32.844 32.002 32.9964C32.3118 33.4388 32.3118 33.4388 32.2642 33.8694C32.218 33.9748 32.1719 34.0802 32.1243 34.1888C31.2434 34.1025 30.8756 33.7766 30.2727 33.1458C30.1079 32.9742 29.9431 32.8026 29.7732 32.6258C29.3031 32.1168 28.8445 31.6009 28.3941 31.0745C27.7304 30.321 27.0391 29.5931 26.3505 28.8624C25.5994 28.0631 24.8761 27.2475 24.1834 26.3965C23.564 25.8549 23.0503 26.1072 22.5228 26.592Z" fill="#363636"/>
<path d="M30.7781 21.8591C31.4761 22.4176 31.7056 22.7567 31.9265 23.6404C31.9903 24.3981 31.8458 24.9583 31.4673 25.6164C30.9296 26.2346 30.3021 26.4293 29.5007 26.4997C28.7252 26.4192 28.0992 26.2165 27.5342 25.6648C27.0249 24.9158 26.9766 24.2211 27.1226 23.3408C27.3379 22.6627 27.6739 22.3021 28.1882 21.8122C29.0928 21.5107 29.9112 21.4739 30.7781 21.8591ZM28.9148 23.1482C28.5066 23.4861 28.5066 23.4861 28.4812 24.074C28.5083 24.2557 28.5354 24.4375 28.5632 24.6247C29.0973 25.0685 29.0973 25.0685 29.7234 24.9294C29.8974 24.8908 30.0714 24.8521 30.2507 24.8122C30.3126 24.3791 30.3745 23.946 30.4382 23.4997C29.7382 22.9019 29.7382 22.9019 28.9148 23.1482Z" fill="#363636"/>
</svg>
