<svg width="12" height="14" viewBox="0 0 12 14" fill="none" xmlns="http://www.w3.org/2000/svg">
<path d="M10.8667 5.76683C10.8667 8.84584 7.45094 12.0525 6.30394 13.0429C6.19709 13.1232 6.06702 13.1667 5.93333 13.1667C5.79964 13.1667 5.66956 13.1232 5.56271 13.0429C4.41571 12.0525 1 8.84584 1 5.76683C1 4.45842 1.51976 3.20361 2.44494 2.27843C3.37012 1.35326 4.62493 0.833496 5.93333 0.833496C7.24173 0.833496 8.49654 1.35326 9.42172 2.27843C10.3469 3.20361 10.8667 4.45842 10.8667 5.76683Z" stroke="#363636" stroke-linecap="round" stroke-linejoin="round"/>
<path d="M5.93333 7.61682C6.95505 7.61682 7.78333 6.78855 7.78333 5.76683C7.78333 4.7451 6.95505 3.91683 5.93333 3.91683C4.9116 3.91683 4.08333 4.7451 4.08333 5.76683C4.08333 6.78855 4.9116 7.61682 5.93333 7.61682Z" stroke="#363636" stroke-linecap="round" stroke-linejoin="round"/>
</svg>
