<svg width="32" height="32" viewBox="0 0 32 32" fill="none" xmlns="http://www.w3.org/2000/svg">
<path d="M13.6907 27.9998C13.9247 28.4052 14.2614 28.7418 14.6667 28.9758C15.0721 29.2099 15.5319 29.3331 16 29.3331C16.4681 29.3331 16.9279 29.2099 17.3333 28.9758C17.7386 28.7418 18.0753 28.4052 18.3093 27.9998M4.34934 20.4345C4.17516 20.6254 4.06021 20.8628 4.01848 21.1179C3.97674 21.3729 4.01003 21.6346 4.11428 21.871C4.21853 22.1075 4.38925 22.3086 4.60568 22.4498C4.8221 22.591 5.07491 22.6663 5.33334 22.6665H26.6667C26.9251 22.6666 27.1779 22.5916 27.3945 22.4506C27.6111 22.3097 27.782 22.1088 27.8865 21.8725C27.991 21.6362 28.0247 21.3746 27.9833 21.1196C27.9419 20.8645 27.8272 20.627 27.6533 20.4358C25.88 18.6078 24 16.6652 24 10.6665C24 8.54477 23.1572 6.50994 21.6569 5.00965C20.1566 3.50936 18.1217 2.6665 16 2.6665C13.8783 2.6665 11.8434 3.50936 10.3431 5.00965C8.84286 6.50994 8 8.54477 8 10.6665C8 16.6652 6.11867 18.6078 4.34934 20.4345Z" stroke="#363636" stroke-width="3" stroke-linecap="round" stroke-linejoin="round"/>
</svg>
