<svg width="24" height="24" viewBox="0 0 24 24" fill="none" xmlns="http://www.w3.org/2000/svg">
<path d="M11.5251 2.29489C11.5689 2.20635 11.6366 2.13183 11.7205 2.07972C11.8045 2.02761 11.9013 2 12.0001 2C12.0989 2 12.1957 2.02761 12.2796 2.07972C12.3636 2.13183 12.4313 2.20635 12.4751 2.29489L14.7851 6.97389C14.9373 7.28186 15.1619 7.5483 15.4397 7.75035C15.7175 7.95239 16.0402 8.08401 16.3801 8.13389L21.5461 8.88989C21.644 8.90408 21.7359 8.94537 21.8116 9.00909C21.8872 9.07282 21.9435 9.15644 21.9741 9.2505C22.0047 9.34456 22.0084 9.4453 21.9847 9.54133C21.961 9.63736 21.9109 9.72485 21.8401 9.79389L18.1041 13.4319C17.8577 13.672 17.6734 13.9684 17.5669 14.2955C17.4605 14.6227 17.4352 14.9708 17.4931 15.3099L18.3751 20.4499C18.3924 20.5477 18.3818 20.6485 18.3446 20.7406C18.3074 20.8327 18.245 20.9125 18.1646 20.9709C18.0842 21.0293 17.9891 21.0639 17.89 21.0708C17.7908 21.0777 17.6918 21.0566 17.6041 21.0099L12.9861 18.5819C12.6818 18.4221 12.3433 18.3386 11.9996 18.3386C11.6559 18.3386 11.3174 18.4221 11.0131 18.5819L6.39609 21.0099C6.30842 21.0563 6.20949 21.0772 6.11054 21.0701C6.0116 21.0631 5.91661 21.0285 5.83639 20.9701C5.75616 20.9118 5.69392 20.8321 5.65675 20.7401C5.61957 20.6482 5.60895 20.5476 5.62609 20.4499L6.50709 15.3109C6.56529 14.9716 6.54007 14.6233 6.43363 14.2959C6.32718 13.9686 6.1427 13.672 5.89609 13.4319L2.16009 9.79489C2.08868 9.72593 2.03808 9.63829 2.01405 9.54197C1.99002 9.44565 1.99353 9.34451 2.02417 9.25008C2.05481 9.15566 2.11136 9.07174 2.18737 9.00788C2.26338 8.94402 2.35579 8.90279 2.45409 8.88889L7.61909 8.13389C7.95935 8.08439 8.28248 7.95295 8.56067 7.75088C8.83887 7.54881 9.06379 7.28216 9.21609 6.97389L11.5251 2.29489Z" stroke="#363636" stroke-width="2" stroke-linecap="round" stroke-linejoin="round"/>
</svg>
