<svg width="25" height="24" viewBox="0 0 25 24" fill="none" xmlns="http://www.w3.org/2000/svg">
<path d="M19.5 9V6C19.5 5.46957 19.2893 4.96086 18.9142 4.58579C18.5391 4.21071 18.0304 4 17.5 4H7.5C6.96957 4 6.46086 4.21071 6.08579 4.58579C5.71071 4.96086 5.5 5.46957 5.5 6V9M19.5 9C20.0304 9 20.5391 9.21071 20.9142 9.58579C21.2893 9.96086 21.5 10.4696 21.5 11V16C21.5 16.5304 21.2893 17.0391 20.9142 17.4142C20.5391 17.7893 20.0304 18 19.5 18M19.5 9C18.9696 9 18.4609 9.21071 18.0858 9.58579C17.7107 9.96086 17.5 10.4696 17.5 11V12.5C17.5 12.6326 17.4473 12.7598 17.3536 12.8536C17.2598 12.9473 17.1326 13 17 13H8C7.86739 13 7.74021 12.9473 7.64645 12.8536C7.55268 12.7598 7.5 12.6326 7.5 12.5V11C7.5 10.4696 7.28929 9.96086 6.91421 9.58579C6.53914 9.21071 6.03043 9 5.5 9M5.5 9C4.96957 9 4.46086 9.21071 4.08579 9.58579C3.71071 9.96086 3.5 10.4696 3.5 11V16C3.5 16.5304 3.71071 17.0391 4.08579 17.4142C4.46086 17.7893 4.96957 18 5.5 18M5.5 18H19.5M5.5 18V20M19.5 18V20" stroke="#363636" stroke-width="2" stroke-linecap="round" stroke-linejoin="round"/>
</svg>
